<mxfile host="Electron" agent="Mozilla/5.0 (Windows NT 10.0; Win64; x64) AppleWebKit/537.36 (KHTML, like Gecko) draw.io/26.1.1 Chrome/132.0.6834.210 Electron/34.3.3 Safari/537.36" version="26.1.1">
  <diagram name="Page-1" id="NpUInRDvqSABwrM0BCn_">
    <mxGraphModel dx="1020" dy="496" grid="1" gridSize="10" guides="1" tooltips="1" connect="1" arrows="1" fold="1" page="1" pageScale="1" pageWidth="850" pageHeight="1100" math="0" shadow="0">
      <root>
        <mxCell id="0" />
        <mxCell id="1" parent="0" />
        <mxCell id="yNB24B2B4GisfJa7A7Ai-4" value="main function" style="rounded=1;whiteSpace=wrap;html=1;" vertex="1" parent="1">
          <mxGeometry x="280" y="125" width="290" height="255" as="geometry" />
        </mxCell>
        <mxCell id="yNB24B2B4GisfJa7A7Ai-3" value="main function" style="rounded=1;whiteSpace=wrap;html=1;" vertex="1" parent="1">
          <mxGeometry x="360" y="222.5" width="120" height="60" as="geometry" />
        </mxCell>
        <mxCell id="yNB24B2B4GisfJa7A7Ai-5" value="decorator fumction" style="text;html=1;align=center;verticalAlign=middle;whiteSpace=wrap;rounded=0;" vertex="1" parent="1">
          <mxGeometry x="300" y="140" width="130" height="30" as="geometry" />
        </mxCell>
        <mxCell id="yNB24B2B4GisfJa7A7Ai-6" value="&lt;h1 style=&quot;margin-top: 0px;&quot;&gt;&lt;span style=&quot;background-color: transparent; color: light-dark(rgb(0, 0, 0), rgb(255, 255, 255));&quot;&gt;use cases&amp;nbsp;&lt;/span&gt;&lt;/h1&gt;&lt;h1 style=&quot;margin-top: 0px;&quot;&gt;&lt;span style=&quot;font-size: 12px; font-weight: 400;&quot;&gt;- logging&lt;/span&gt;&lt;/h1&gt;&lt;h1 style=&quot;margin-top: 0px;&quot;&gt;&lt;span style=&quot;background-color: transparent; color: light-dark(rgb(0, 0, 0), rgb(255, 255, 255)); font-size: 12px; font-weight: 400;&quot;&gt;- access contol&lt;/span&gt;&lt;/h1&gt;&lt;div&gt;&lt;span style=&quot;font-size: 12px; font-weight: 400;&quot;&gt;-catching&lt;/span&gt;&lt;/div&gt;&lt;div&gt;&lt;span style=&quot;font-size: 12px; font-weight: 400;&quot;&gt;-performsnce measure&amp;nbsp;&lt;/span&gt;&lt;/div&gt;" style="text;html=1;whiteSpace=wrap;overflow=hidden;rounded=0;" vertex="1" parent="1">
          <mxGeometry x="640" y="125" width="180" height="205" as="geometry" />
        </mxCell>
        <mxCell id="yNB24B2B4GisfJa7A7Ai-7" value="admin?" style="text;html=1;align=center;verticalAlign=middle;whiteSpace=wrap;rounded=0;" vertex="1" parent="1">
          <mxGeometry x="370" y="170" width="60" height="30" as="geometry" />
        </mxCell>
      </root>
    </mxGraphModel>
  </diagram>
</mxfile>
